<svg xmlns="http://www.w3.org/2000/svg" viewBox="0 0 512 512" width="512" height="512">
  <defs>
    <linearGradient id="ticketBody" x1="0%" y1="0%" x2="100%" y2="100%">
      <stop offset="0%" stop-color="#22d3ee"/>
      <stop offset="55%" stop-color="#38bdf8"/>
      <stop offset="100%" stop-color="#0ea5e9"/>
    </linearGradient>
    <linearGradient id="starGrad" x1="0%" y1="0%" x2="0%" y2="100%">
      <stop offset="0%" stop-color="#0369a1"/>
      <stop offset="100%" stop-color="#075985"/>
    </linearGradient>
    <mask id="ticketMask" maskUnits="userSpaceOnUse">
      <rect x="104" y="168" width="304" height="176" rx="14" fill="white"/>
      <circle cx="104" cy="214" r="18" fill="black"/>
      <circle cx="104" cy="256" r="18" fill="black"/>
      <circle cx="104" cy="298" r="18" fill="black"/>
      <circle cx="408" cy="214" r="18" fill="black"/>
      <circle cx="408" cy="256" r="18" fill="black"/>
      <circle cx="408" cy="298" r="18" fill="black"/>
      <circle cx="132" cy="168" r="10" fill="black"/>
      <circle cx="380" cy="168" r="10" fill="black"/>
      <circle cx="132" cy="344" r="10" fill="black"/>
      <circle cx="380" cy="344" r="10" fill="black"/>
    </mask>
  </defs>
  <rect width="512" height="512" rx="108" ry="108" fill="#000000"/>
  <rect x="104" y="168" width="304" height="176" rx="14" fill="url(#ticketBody)" mask="url(#ticketMask)"/>
  <circle cx="140" cy="214" r="9" fill="#000000"/>
  <circle cx="140" cy="256" r="9" fill="#000000"/>
  <circle cx="140" cy="298" r="9" fill="#000000"/>
  <circle cx="372" cy="214" r="9" fill="#000000"/>
  <circle cx="372" cy="256" r="9" fill="#000000"/>
  <circle cx="372" cy="298" r="9" fill="#000000"/>
  <polygon fill="url(#starGrad)" points="256,218 262,236 281,236 266,248 272,266 256,255 240,266 246,248 231,236 250,236"/>
</svg>
